Coordinates
version=1
nRows=6
nColumns=107
inDegrees=yes

Units are S.I. units (second, meters, Newtons, ...)
If the header above contains a line with 'inDegrees', this indicates whether rotational values are in degrees (yes) or radians (no).

endheader
time	sternoclavicular_r2	sternoclavicular_r3	unrotscap_r3	unrotscap_r2	acromioclavicular_r2	acromioclavicular_r3	acromioclavicular_r1	unrothum_r1	unrothum_r3	unrothum_r2	elv_angle	shoulder_elv	shoulder1_r2	shoulder_rot	elbow_flexion	pro_sup	deviation	flexion	proximal_distal_r1	proximal_distal_r3	cmc_flexion	cmc_abduction	mp_flexion	ip_flexion	mcp2_flexion	mcp2_abduction	pm2_flexion	md2_flexion	mcp3_flexion	mcp3_abduction	pm3_flexion	md3_flexion	mcp4_flexion	mcp4_abduction	pm4_flexion	md4_flexion	mcp5_flexion	mcp5_abduction	pm5_flexion	md5_flexion	bicpt_tx	bicpt_ty	bicpt_tz	bicpt2_tx	bicpt2_ty	bicpt2_tz	ptpt_tx	ptpt_ty	ptpt_tz	FCUpt_tx	FCUpt_ty	FCUpt_tz	EDCpt_tx	EDCpt_ty	EDCpt_tz	APLpt_tx	APLpt_ty	APLpt_tz	FPLpt_tx	FPLpt_ty	FPLpt_tz	FPLpt2_tx	FPLpt2_ty	FPLpt2_tz	PEC1pt2_tx	PEC1pt2_ty	PEC1pt2_tz	PEC1pt3_tx	PEC1pt3_ty	PEC1pt3_tz	PEC2pt2_tx	PEC2pt2_ty	PEC2pt2_tz	PEC2pt3_tx	PEC2pt3_ty	PEC2pt3_tz	PEC3pt2_tx	PEC3pt2_ty	PEC3pt2_tz	PEC3pt3_tx	PEC3pt3_ty	PEC3pt3_tz	DELT2pt2a_tx	DELT2pt2a_ty	DELT2pt2a_tz	DELT2pt2_tx	DELT2pt2_ty	DELT2pt2_tz	LAT1pt2_tx	LAT1pt2_ty	LAT1pt2_tz	LAT1pt3_tx	LAT1pt3_ty	LAT1pt3_tz	LAT2pt2_tx	LAT2pt2_ty	LAT2pt2_tz	LAT2pt3_tx	LAT2pt3_ty	LAT2pt3_tz	LAT3pt2_tx	LAT3pt2_ty	LAT3pt2_tz	LAT3pt3_tx	LAT3pt3_ty	LAT3pt3_tz
      1.76666667	     -0.31218715	      0.13222774	     -0.13222774	      0.31218715	     -0.06321155	      0.51085349	      0.22962513	     -0.22962513	     -0.51085349	      0.06321155	    101.07259542	     73.91308255	     -1.76404957	    -34.37624817	     30.40737806	     26.83961603	      0.17242812	     -1.06572514	      0.20967383	     -0.53286257	     14.33157900	    -22.76493896	     -1.53538957	     -1.93867084	     16.25999003	      9.24838818	     28.43236572	    -16.09159879	     13.51964442	      2.75472917	     24.79007482	     21.64923796	     14.35246890	      0.36120974	     13.27395216	     24.12987358	      8.53253693	     -5.34997082	     -0.86115500	      5.16441324	      0.00090578	     -0.03108515	     -0.00486137	      0.01635208	     -0.01846031	     -0.00875373	      0.00556686	     -0.06618233	     -0.00221208	      0.00648194	     -0.18374429	     -0.00022790	     -0.00322075	      0.00087157	      0.00019405	      0.00013935	      0.00005574	      0.00027869	      0.00017836	      0.00053509	      0.00030099	      0.00002522	     -0.00024420	     -0.00029304	      0.00242271	      0.00850001	      0.00591305	     -0.00792513	      0.01913529	     -0.01814978	      0.00242271	      0.00850001	      0.00591305	      0.00053382	      0.01773915	     -0.00932127	      0.00386169	      0.00472675	      0.01575294	      0.00000000	      0.00730328	      0.00000000	     -0.00693962	     -0.03207009	     -0.00601909	      0.02069016	     -0.00090904	     -0.00974086	     -0.00086232	      0.01445413	     -0.00591305	      0.00238165	      0.02085993	     -0.01724640	     -0.00578986	      0.01252417	     -0.00529711	     -0.01207248	      0.02644448	     -0.02960632	     -0.02266670	      0.01400243	     -0.00710387	     -0.01502901	      0.03055077	     -0.03699764
      1.80000000	     -0.31202880	      0.13216067	     -0.13216067	      0.31202880	     -0.06317948	      0.51059437	      0.22950866	     -0.22950866	     -0.51059437	      0.06317948	    101.01459117	     73.87559166	     -1.76303721	    -34.40604862	     30.54676018	     26.86075222	      0.17344717	     -1.06708961	      0.21076834	     -0.53354480	     14.29645867	    -22.75830262	     -1.54949728	     -1.93682393	     16.27109725	      9.26746895	     28.45356307	    -16.07918831	     13.54065731	      2.76458913	     24.81075212	     21.65112385	     14.38092614	      0.35648265	     13.30086849	     24.13567260	      8.55209228	     -5.36371028	     -0.84738944	      5.15939686	      0.00091039	     -0.03110113	     -0.00486394	      0.01635238	     -0.01849818	     -0.00875164	      0.00556529	     -0.06618334	     -0.00221378	      0.00648404	     -0.18374388	     -0.00022814	     -0.00322328	      0.00087239	      0.00019396	      0.00013819	      0.00005528	      0.00027638	      0.00017689	      0.00053066	      0.00029850	      0.00002529	     -0.00024386	     -0.00029264	      0.00242148	      0.00849570	      0.00591005	     -0.00792111	      0.01912559	     -0.01814058	      0.00242148	      0.00849570	      0.00591005	      0.00053355	      0.01773016	     -0.00931654	      0.00386024	      0.00472435	      0.01574927	      0.00000000	      0.00729583	      0.00000000	     -0.00693610	     -0.03205383	     -0.00601289	      0.02070138	     -0.00091010	     -0.00975705	     -0.00086188	      0.01444679	     -0.00591005	      0.00238044	      0.02084935	     -0.01723765	     -0.00578693	      0.01251782	     -0.00529442	     -0.01206636	      0.02643107	     -0.02959130	     -0.02265520	      0.01399533	     -0.00710027	     -0.01502138	      0.03053527	     -0.03697887
      1.83333333	     -0.31686587	      0.13420943	     -0.13420943	      0.31686587	     -0.06415889	      0.51850960	      0.23306650	     -0.23306650	     -0.51850960	      0.06415889	     99.82564243	     75.02081062	     -1.74228614	    -28.22347521	     29.95017087	     21.70721573	      0.20471354	     -1.10385710	      0.24352390	     -0.55192855	     14.65607067	    -22.63502159	     -1.90475934	     -1.25219174	     16.90047759	      9.83335553	     29.45146901	    -14.72987159	     15.34140799	      2.95244408	     24.80566185	     20.62556165	     16.45600062	      0.19552491	     13.94822454	     23.18375739	     10.65535777	     -5.92081007	      0.10244202	      4.98518798	      0.00089066	     -0.03103275	     -0.00485293	      0.01615748	     -0.01833611	     -0.00918823	      0.00594608	     -0.06593712	     -0.00179863	      0.00599018	     -0.18382809	     -0.00013057	     -0.00260486	      0.00068775	      0.00018707	      0.00010897	      0.00004359	      0.00021794	      0.00013948	      0.00041844	      0.00023537	      0.00002452	     -0.00024707	     -0.00029648	      0.00245902	      0.00862740	      0.00600167	     -0.00804390	      0.01942207	     -0.01842179	      0.00245902	      0.00862740	      0.00600167	      0.00054182	      0.01800501	     -0.00946097	      0.00390431	      0.00479759	      0.01586000	      0.00000000	      0.00752528	      0.00000000	     -0.00704363	     -0.03255072	     -0.00620348	      0.01806938	     -0.00069692	     -0.00665332	     -0.00087524	      0.01467075	     -0.00600167	      0.00241734	      0.02117256	     -0.01750487	     -0.00587664	      0.01271187	     -0.00537650	     -0.01225341	      0.02684080	     -0.03005003	     -0.02300640	      0.01421229	     -0.00721034	     -0.01525424	      0.03100863	     -0.03755212
      1.86666667	     -0.31684463	      0.13420043	     -0.13420043	      0.31684463	     -0.06415459	      0.51847484	      0.23305087	     -0.23305087	     -0.51847484	      0.06415459	     99.84218907	     75.01578148	     -1.74257493	    -28.21614483	     29.95856708	     21.70889626	      0.20467462	     -1.10384551	      0.24348361	     -0.55192276	     14.65634806	    -22.63506997	     -1.90463327	     -1.25207387	     16.90044607	      9.83367545	     29.45137068	    -14.72965855	     15.34203620	      2.95294564	     24.80590392	     20.62561472	     16.45739729	      0.19576799	     13.94906842	     23.18381359	     10.65738765	     -5.92087202	      0.10318334	      4.98526850	      0.00089094	     -0.03103371	     -0.00485308	      0.01615754	     -0.01833839	     -0.00918809	      0.00594596	     -0.06593720	     -0.00179877	      0.00599034	     -0.18382806	     -0.00013060	     -0.00260506	      0.00068781	      0.00018707	      0.00010897	      0.00004359	      0.00021795	      0.00013949	      0.00041846	      0.00023538	      0.00002452	     -0.00024707	     -0.00029649	      0.00245885	      0.00862682	      0.00600127	     -0.00804337	      0.01942077	     -0.01842056	      0.00245885	      0.00862682	      0.00600127	      0.00054178	      0.01800380	     -0.00946033	      0.00390412	      0.00479727	      0.01585952	      0.00000000	      0.00752427	      0.00000000	     -0.00704315	     -0.03254854	     -0.00620263	      0.01806595	     -0.00069667	     -0.00664991	     -0.00087518	      0.01466977	     -0.00600127	      0.00241718	      0.02117114	     -0.01750370	     -0.00587624	      0.01271102	     -0.00537614	     -0.01225259	      0.02683900	     -0.03004801	     -0.02300486	      0.01421134	     -0.00720986	     -0.01525322	      0.03100655	     -0.03754960
      1.90000000	     -0.31545602	      0.13361228	     -0.13361228	      0.31545602	     -0.06387343	      0.51620258	      0.23202951	     -0.23202951	     -0.51620258	      0.06387343	    100.26820165	     74.68701759	     -1.75001025	    -30.13748084	     29.95708932	     23.20382892	      0.18947058	     -1.11071636	      0.22775477	     -0.55535818	     14.88968055	    -22.55122842	     -2.34001317	     -0.25069910	     16.87679826	      9.79248718	     28.97513233	    -12.03160968	     14.64640452	      3.15565493	     26.26063475	     20.54826180	     15.69088941	      0.58279944	     15.33554592	     22.80374018	     10.93388140	     -6.10383831	     -0.13364759	      5.00626745	      0.00089089	     -0.03103354	     -0.00485305	      0.01622034	     -0.01833799	     -0.00906528	      0.00583550	     -0.06600862	     -0.00191919	      0.00613275	     -0.18380441	     -0.00016096	     -0.00278445	      0.00074053	      0.00019055	      0.00010326	      0.00004130	      0.00020652	      0.00013218	      0.00039653	      0.00022305	      0.00002401	     -0.00024908	     -0.00029889	      0.00244808	      0.00858901	      0.00597497	     -0.00800811	      0.01933566	     -0.01833983	      0.00244808	      0.00858901	      0.00597497	      0.00053941	      0.01792490	     -0.00941887	      0.00389151	      0.00477624	      0.01582806	      0.00000000	      0.00745803	      0.00000000	     -0.00701229	     -0.03240589	     -0.00614762	      0.01893919	     -0.00076178	     -0.00756555	     -0.00087135	      0.01460547	     -0.00597497	      0.00240658	      0.02107835	     -0.01742699	     -0.00585049	      0.01265531	     -0.00535257	     -0.01219889	      0.02672138	     -0.02991633	     -0.02290404	      0.01414905	     -0.00717826	     -0.01518637	      0.03087066	     -0.03738503
      1.93333333	     -0.31542662	      0.13359983	     -0.13359983	      0.31542662	     -0.06386747	      0.51615446	      0.23200788	     -0.23200788	     -0.51615446	      0.06386747	    100.27191821	     74.68005619	     -1.75007512	    -30.13416312	     29.95719793	     23.20534570	      0.18945148	     -1.11070853	      0.22773458	     -0.55535426	     14.88917036	    -22.55105778	     -2.34034213	     -0.25081475	     16.87546734	      9.79322408	     28.97457472	    -12.03178407	     14.64758163	      3.15585412	     26.26051667	     20.54815419	     15.69283404	      0.58146664	     15.33615528	     22.80374633	     10.93308759	     -6.10287388	     -0.13369228	      5.00626017	      0.00089089	     -0.03103355	     -0.00485306	      0.01622039	     -0.01833802	     -0.00906515	      0.00583539	     -0.06600870	     -0.00191932	      0.00613290	     -0.18380439	     -0.00016099	     -0.00278463	      0.00074058	      0.00019055	      0.00010327	      0.00004131	      0.00020654	      0.00013218	      0.00039655	      0.00022306	      0.00002401	     -0.00024907	     -0.00029888	      0.00244785	      0.00858821	      0.00597441	     -0.00800737	      0.01933385	     -0.01833812	      0.00244785	      0.00858821	      0.00597441	      0.00053936	      0.01792323	     -0.00941799	      0.00389125	      0.00477580	      0.01582738	      0.00000000	      0.00745663	      0.00000000	     -0.00701163	     -0.03240287	     -0.00614646	      0.01893737	     -0.00076168	     -0.00756425	     -0.00087127	      0.01460411	     -0.00597441	      0.00240636	      0.02107639	     -0.01742536	     -0.00584994	      0.01265413	     -0.00535208	     -0.01219775	      0.02671889	     -0.02991354	     -0.02290190	      0.01414773	     -0.00717759	     -0.01518496	      0.03086778	     -0.03738155
